<?xml version="1.0" encoding="utf-8"?>
<!-- Generator: Adobe Illustrator 21.0.0, SVG Export Plug-In . SVG Version: 6.00 Build 0)  -->
<svg version="1.1" id="Capa_1" xmlns="http://www.w3.org/2000/svg" xmlns:xlink="http://www.w3.org/1999/xlink" x="0px" y="0px"
	 viewBox="0 0 457 466" style="enable-background:new 0 0 457 466;" xml:space="preserve">
<style type="text/css">
	.st0{fill:#BEBEBE;}
</style>
<path class="st0" d="M60.7,75.8V15.2C60.7,6.8,67.4,0,75.8,0C84.2,0,91,6.8,91,15.2v60.7C91,84.2,84.2,91,75.8,91
	C67.4,91,60.7,84.2,60.7,75.8z M318.4,91c8.4,0,15.2-6.8,15.2-15.2V15.2c0-8.4-6.8-15.2-15.2-15.2c-8.4,0-15.2,6.8-15.2,15.2v60.7
	C303.3,84.2,310,91,318.4,91z M121.3,182H60.7v60.7h60.7V182z M60.7,333.6h60.7v-60.7H60.7V333.6z M151.6,242.6h60.7V182h-60.7
	V242.6z M151.6,333.6h60.7v-60.7h-60.7V333.6z M30.3,360.9V151.6h333.6v60.7h30.3V94c0-18.4-14.7-33.3-32.8-33.3h-12.6v15.2
	c0,16.7-13.6,30.3-30.3,30.3c-16.7,0-30.3-13.6-30.3-30.3V60.7h-182v15.2c0,16.7-13.6,30.3-30.3,30.3c-16.7,0-30.3-13.6-30.3-30.3
	V60.7H32.9C14.7,60.7,0,75.6,0,94v266.9c0,18.4,14.7,33.3,32.9,33.3h179.4v-30.3H32.9C31.5,363.9,30.3,362.5,30.3,360.9z
	 M303.3,242.6V182h-60.6v60.7H303.3z M349.8,251.5c-59.1,0-107.2,48.1-107.2,107.2S290.6,466,349.8,466S457,417.9,457,358.8
	S408.9,251.5,349.8,251.5z M349.8,443.2c-46.6,0-84.4-37.9-84.4-84.4s37.9-84.4,84.4-84.4s84.4,37.9,84.4,84.4
	S396.3,443.2,349.8,443.2z M405.6,355.4h-48.2v-58c0-4.9-4-8.8-8.8-8.8s-8.8,4-8.8,8.8v66.8c0,4.9,4,8.8,8.8,8.8h57
	c4.9,0,8.8-4,8.8-8.8S410.5,355.4,405.6,355.4z"/>
</svg>
