<?xml version="1.0" encoding="utf-8"?>
<!-- Generator: Adobe Illustrator 21.0.0, SVG Export Plug-In . SVG Version: 6.00 Build 0)  -->
<svg version="1.1" id="Layer_1" xmlns="http://www.w3.org/2000/svg" xmlns:xlink="http://www.w3.org/1999/xlink" x="0px" y="0px"
	 viewBox="0 0 425 425" style="enable-background:new 0 0 425 425;" xml:space="preserve">
<style type="text/css">
	.st0{fill:#BBBBBB;}
</style>
<g>
	<path class="st0" d="M293.3,45V20h-30v25H161.7V20h-30v25H0v360h316.2L425,296.2V45H293.3z M131.7,75v25h30V75h101.7v20h30V75H395
		v50H30V75H131.7z M30,155h365v120H295v100H30V155z M373.8,305L325,353.8V305H373.8z"/>
	<rect x="97.5" y="285" class="st0" width="50" height="50"/>
	<rect x="187.5" y="285" class="st0" width="50" height="50"/>
	<rect x="187.5" y="195" class="st0" width="50" height="50"/>
	<rect x="277.5" y="195" class="st0" width="50" height="50"/>
	<rect x="97.5" y="195" class="st0" width="50" height="50"/>
</g>
</svg>
