<?xml version="1.0" encoding="utf-8"?>
<!-- Generator: Adobe Illustrator 21.0.0, SVG Export Plug-In . SVG Version: 6.00 Build 0)  -->
<svg version="1.1" id="Layer_1" xmlns="http://www.w3.org/2000/svg" xmlns:xlink="http://www.w3.org/1999/xlink" x="0px" y="0px"
	 viewBox="0 0 508.1 508.1" style="enable-background:new 0 0 508.1 508.1;" xml:space="preserve">
<style type="text/css">
	.st0{fill:#BEBEBE;}
</style>
<path class="st0" d="M500.4,264.6c6.9-3.6,9.6-12.1,6.1-19c-3.6-6.9-12.1-9.6-19-6.1l-107.8,55.6v-45.6l120.7-62.3
	c6.9-3.6,9.6-12.1,6.1-19c-3.6-6.9-12.1-9.6-19-6.1l-107.8,55.6V172l120.7-62.3c9.6-5.1,10.8-18.6,0-25.1L339.6,1.7
	c-4.1-2.1-8.9-2.1-12.9,0L7.8,166.3c-9.7,5.3-11.1,18.6,0,25.1l160.8,82.9c4.7,2.2,9,2,12.9,0l93.8-48.4v45.7L175,323.3L20.7,243.7
	c-6.9-3.6-15.4-0.9-19,6.1c-3.6,6.9-0.9,15.4,6.1,19l160.8,82.9c4.4,2.1,8.7,2.1,12.9,0l93.8-48.4v45.6L175,400.6L20.7,321
	c-6.9-3.6-15.4-0.9-19,6.1c-3.6,6.9-0.9,15.4,6.1,19l160.7,83c4.1,2,8.4,2.1,12.9,0l93.8-48.4v45.7L175,478L20.7,398.4
	c-6.9-3.6-15.4-0.9-19,6.1c-3.6,6.9-0.9,15.4,6.1,19l160.8,82.9c4.4,2.1,8.7,2.1,12.9,0l318.9-164.5c6.9-3.6,9.6-12.1,6.1-19
	c-3.6-6.9-12.1-9.6-19-6.1l-107.8,55.6v-45.7L500.4,264.6z M175,245.9L45,178.8l83.6-43.1l130,67.1L175,245.9z M159.4,119.8
	l45.4-23.4l129.9,67l-45.4,23.4L159.4,119.8z M351.4,387l-45.8,23.6l-2.2,1.1V211.3l48-24.8V387z M365.6,147.5l-130-67.1l97.5-50.3
	l130,67.1L365.6,147.5z"/>
</svg>
