<svg xmlns="http://www.w3.org/2000/svg" width="139" height="40" viewBox="0 0 139 40">
    <g fill="none" fill-rule="evenodd">
        <path fill="#82BC00" d="M114.177 10.136l-.022.119-.027.116-.029.112-.031.107-.033.102-.034.097-.037.094-.038.088-.045.085-.046.08-.05.076-.053.072-.057.068-.059.063-.064.06-.067.053-.069.052-.076.047-.077.044-.083.038-.085.036-.09.032-.093.028-.097.024-.101.022-.107.017-.111.015-.118.012-.124.008-.129.007-.135.004-.14.002-.139-.002-.131-.004-.124-.007-.12-.008-.11-.012-.106-.015-.1-.017-.093-.022-.088-.024-.083-.028-.077-.032-.073-.036-.066-.04-.062-.045-.056-.05-.048-.052-.046-.054-.04-.061-.036-.066-.03-.068-.025-.074-.02-.077-.013-.08-.01-.084-.005-.09v-.093l.003-.098.008-.102.014-.108.016-.112.022-.116.048-.236.027-.114.028-.108.031-.105.033-.1.035-.096.037-.09.038-.088.045-.082.047-.077.049-.074.052-.072.058-.068.057-.064.065-.062.067-.058.07-.05.075-.05.078-.043.082-.04.086-.038.09-.033.092-.029.098-.026.1-.023.107-.019.112-.017.118-.013.125-.01.13-.009.135-.003.142-.002.138.002.13.003.125.01.117.01.113.012.106.017.099.019.091.023.089.026.083.03.076.033.074.038.066.04.062.045.055.05.053.054.045.059.039.063.033.064.03.07.023.072.019.076.013.079.008.082.001.087v.092l-.004.095-.009.101-.012.104-.013.11-.02.113z"/>
        <path fill="#007CBA" d="M136.098 25.981l-.01.034-.014.031-.019.032-.017.03-.022.029-.022.028-.027.027-.028.022-.03.025-.034.02-.037.023-.039.019-.042.018-.044.015-.05.015-.051.014-.055.014-.119.022-.129.02-.142.016-.156.013-.175.011-.19.005h-.202l-.188-.005-.171-.011-.15-.013-.132-.017-.117-.019-.105-.022-.047-.014-.043-.014-.04-.015-.038-.017-.036-.019-.03-.019-.03-.022-.024-.023-.025-.025-.019-.025-.015-.03-.01-.03-.01-.03-.004-.03-.004-.035v-.031l.005-.035.007-.036.008-.033.319-1.696-.03.045-.083.117-.09.118-.095.117-.102.118-.108.118-.113.117-.121.116-.124.114-.13.111-.13.112-.138.106-.14.104-.147.102-.15.099-.154.095-.156.09-.163.088-.163.082-.166.076-.171.074-.173.067-.176.064-.18.055-.18.048-.18.041-.183.034-.183.026-.185.017-.187.011-.186.004h-.117l-.114-.004-.113-.005-.108-.006-.108-.01-.106-.01-.102-.014-.1-.015-.098-.018-.096-.02-.094-.02-.092-.024-.09-.026-.088-.026-.085-.031-.083-.03-.159-.069-.152-.074-.145-.08-.135-.087-.128-.09-.12-.098-.112-.103-.105-.11-.096-.116-.088-.12-.083-.126-.076-.133-.07-.137-.06-.146-.059-.149-.05-.154-.042-.16-.035-.161-.032-.165-.026-.168-.018-.171-.013-.177-.01-.178-.002-.182.003-.225.004-.115.015-.23.01-.118.013-.116.03-.236.035-.238.037-.242.043-.242.024-.122 1.465-7.314.008-.035.012-.033.012-.034.017-.031.017-.03.021-.031.024-.029.028-.028.027-.026.033-.026.036-.023.04-.023.04-.017.046-.02.048-.016.051-.018.115-.029.062-.012.067-.014.143-.021.161-.02.177-.014.196-.01.212-.005c.117 0 .236-.002.352 0 .11 0 .22.003.33.004l.19.01.088.008.082.007.149.02.131.021.117.027.05.014.049.016.043.016.04.018.037.019.034.02.029.022.027.025.024.027.02.028.015.03.013.03.01.033.005.031.003.033v.034l-.004.033-.007.036-1.409 7.086-.03.148-.027.148c-.01.077-.023.155-.032.231l-.018.157-.01.156-.009.15-.002.148v.15l.001.077.005.072.006.072.008.069.01.068.013.065.014.063.016.065.017.06.02.057.022.053.024.054.026.05.029.048.03.045.032.043.036.039.038.037.039.033.041.031.045.03.044.027.05.022.048.022.054.018.057.015.058.014.062.01.064.007.067.003.072.004.133-.007.135-.016.137-.027.138-.037.14-.049.143-.06.143-.071.146-.08.146-.092.144-.098.142-.107.141-.116.139-.124.137-.132.135-.14.133-.149.13-.156.128-.164.122-.17.12-.177.117-.184.112-.19.11-.199.106-.205.051-.104.051-.106.047-.107.047-.11.045-.108.043-.11.04-.111.043-.113.038-.113.036-.115.035-.116.034-.117.032-.118.03-.12.029-.12.027-.12 1.014-5.104.003-.033.01-.034.012-.033.015-.034.019-.031.02-.031.024-.029.029-.028.03-.027.034-.025.036-.023.041-.023.042-.017.046-.02.047-.016.053-.018.115-.029.061-.012.068-.014.143-.021.162-.02.175-.014.195-.01.213-.005c.117 0 .235-.002.354 0 .109 0 .218.003.329.004l.19.01.087.008.082.007.151.02.133.021.06.014.057.013.051.014.05.016.044.016.044.018.036.019.034.019.032.023.026.026.023.027.02.029.012.03.01.03.008.032.005.032v.065l-.004.033-.005.036-2.381 11.821-.01.034-.01.036zM126.364 14.041l-.004.06-.01.06-.015.062-.02.064-.026.066-.032.067-.038.068-.043.07-.05.077-.055.078-.064.084-.072.09-.078.092-.086.097-.091.104-.1.108-4.175 3.907 2.714 5.661.066.158.05.144.042.136c.025.096.048.192.065.291l.008.048.01.09.003.076-.001.042-.004.04-.007.04-.01.038-.013.036-.016.038-.02.034-.022.032-.027.032-.03.032-.033.03-.037.026-.041.028-.042.022-.05.023-.05.02-.057.019-.06.02-.067.016-.068.015-.074.013-.076.012-.082.01-.178.018-.2.014-.224.01-.245.005h-.26l-.24-.004c-.107-.002-.21-.008-.315-.012l-.177-.012-.08-.007-.077-.009-.071-.01-.066-.011-.062-.014-.058-.013-.053-.016-.05-.017-.044-.018-.042-.02-.042-.02-.037-.023-.034-.023-.03-.024-.03-.027-.026-.03-.023-.029-.02-.032-.02-.032-.017-.034-.016-.035-.027-.074-.01-.038-2.756-6.095-1.225 6.114-.013.039-.014.034-.016.034-.018.031-.02.03-.022.03-.022.028-.028.029-.028.026-.033.023-.035.024-.04.023-.041.022-.046.02-.049.016-.106.035-.06.014-.06.016-.137.025-.153.02-.168.017-.287.02-.213.006-.231.003-.236-.003-.213-.007-.19-.012-.087-.007-.16-.017-.14-.019-.124-.022-.058-.014-.05-.014-.048-.015-.044-.016-.041-.017-.036-.02-.035-.023-.03-.022-.027-.025-.022-.025-.018-.027-.016-.029-.014-.03-.01-.032-.006-.032-.003-.033v-.037l.002-.035.006-.036 3.43-16.963.009-.036.01-.034.013-.033.014-.034.017-.032.019-.03.022-.03.024-.03.028-.028.032-.029.036-.026.037-.022.043-.024.046-.02.048-.02.11-.037.06-.018.13-.03.144-.025.159-.022.174-.02.195-.011.217-.008.237-.004.237.004.215.008.191.01.17.02.149.023.066.012.067.014.058.014.055.018.05.016.092.037.04.02.037.021.033.024.032.025.024.027.021.03.017.03.015.03.01.032.01.033.004.032.003.035v.033l-.004.036-1.968 9.81 4.351-4.615.067-.077.035-.039.036-.036.036-.032.04-.033.04-.03.078-.058.044-.027.047-.026.05-.026.051-.021.057-.021.056-.018.06-.02.129-.028.14-.026.153-.02.161-.017c.095-.006.188-.013.283-.016.107-.005.216-.008.328-.009l.245-.002.345.003c.13.003.262.01.395.018l.086.006.159.017.14.018.123.024.056.013.05.016.046.016.045.018.038.018.04.02.034.02.029.024.026.024.026.026.017.026.015.027.015.029.013.027.007.032.007.03.005.031v.032z"/>
        <path fill="#82BC00" d="M110.745 25.898l-.008.036-.013.034-.013.035-.017.031-.017.033-.022.028-.022.03-.025.029-.03.026-.034.023-.035.024-.04.023-.042.022-.044.02-.05.016-.106.035-.06.014-.06.016-.137.025-.152.02-.168.017-.188.013-.204.011-.223.005h-.237l-.225-.005-.202-.011-.18-.013-.159-.017-.142-.02-.126-.025-.058-.016-.053-.014-.093-.035-.042-.019-.036-.02-.035-.022-.03-.023-.027-.025-.022-.027-.019-.028-.013-.03-.012-.03-.008-.032-.005-.032-.002-.033v-.035l.003-.034.006-.036 2.36-11.769.008-.034.012-.035.012-.035.016-.03.02-.033.02-.03.025-.027.053-.052.032-.027.036-.025.04-.023.04-.021.046-.022.047-.02.105-.035.058-.017.063-.017.066-.014.142-.027.158-.022.176-.017.195-.013.215-.009.236-.002.24.002.213.01.193.012.171.017.148.022.133.027.061.014.056.017.054.017.093.037.04.02.037.021.035.024.03.024.025.026.023.028.017.027.015.029.012.03.008.03.005.031.002.034v.034l-.005.035-.005.035z"/>
        <path fill="#82BC00" fill-rule="nonzero" d="M103.22 17.633l-.107-.16-.122-.162-.121-.153-.128-.14-.128-.128-.132-.119-.133-.105-.14-.094-.14-.085-.146-.073-.156-.06-.158-.05-.163-.04-.171-.029-.175-.016-.18-.006-.137.004-.132.012-.13.02-.127.03-.125.035-.12.047-.12.053-.118.06-.11.068-.11.072-.107.079-.103.084-.098.09-.098.095-.093.101-.091.106-.087.112-.086.116-.082.121-.08.126-.077.13-.074.133-.072.135-.068.141-.068.146-.063.148-.06.15-.06.15-.054.151-.052.154-.05.154-.045.156-.044.155-.04.157-.036.157-.037.157-.032.159-.028.159-.027.16-.024.159-.037.312-.013.152-.012.148-.012.146-.007.143-.003.14-.002.136.001.097.004.096.005.097.007.093.009.092.01.092.028.18.016.087.018.084.023.08.024.08.029.078.032.073.034.072.037.068.039.066.042.062.048.058.051.055.053.05.058.05.06.045.063.042.065.037.07.031.075.027.08.021.083.02.09.011.093.007.098.002.145-.006.144-.015.146-.027.147-.038.147-.047.15-.06.15-.069.15-.08.152-.09.147-.099.145-.106.143-.113.141-.123.138-.129.137-.138.133-.146.13-.152.128-.16.12-.164.12-.172.114-.177.111-.185.104-.188.104-.197.05-.1.048-.1.047-.101.044-.102.043-.103.041-.104.04-.105.074-.212.035-.108.03-.107.031-.112.03-.11.029-.111.025-.112.394-1.884zm1.592 8.539l-.061.05-.072.046-.081.04-.088.032-.102.029-.114.026-.13.02-.141.018-.156.013-.17.009-.184.006-.198.003c-.097 0-.192-.002-.287-.004l-.17-.008-.151-.01-.134-.013-.119-.019-.105-.023-.096-.025-.044-.014-.04-.018-.038-.017-.033-.02-.03-.023-.025-.022-.024-.024-.02-.026-.017-.028-.013-.031-.009-.03-.007-.032-.005-.034v-.07l.002-.039.007-.038.318-1.623-.053.086-.077.113-.085.115-.09.113-.1.116-.107.117-.113.116-.12.114-.123.113-.128.108-.134.106-.138.103-.144.101-.148.1-.153.094-.157.092-.16.085-.165.082-.168.08-.172.074-.178.068-.18.065-.185.06-.185.05-.187.043-.188.036-.19.027-.191.019-.194.011-.194.004-.132-.002-.129-.003-.127-.007-.125-.01-.12-.013-.121-.018-.115-.017-.114-.023-.11-.025-.108-.027-.105-.031-.102-.033-.099-.036-.096-.04-.093-.044-.09-.047-.175-.094-.166-.106-.157-.115-.149-.121-.14-.13-.129-.14-.12-.147-.11-.157-.108-.161-.095-.168-.088-.174-.08-.177-.072-.185-.065-.189-.059-.194-.05-.202-.042-.203-.037-.206-.03-.208-.025-.211-.019-.215-.014-.217-.01-.218-.002-.222.003-.212.008-.216.012-.22.016-.227c.014-.155.032-.311.05-.466l.034-.24c.024-.164.051-.327.08-.49l.046-.247.054-.247.059-.245.065-.246.068-.247c.04-.124.078-.247.116-.37l.042-.123.088-.243.092-.242.098-.24.105-.237.11-.235.116-.232.121-.231.128-.23.066-.114.067-.11.07-.11.069-.108.074-.107.074-.105.075-.103.079-.102.158-.2.084-.096.084-.096.085-.094.087-.093.09-.089.09-.088.093-.087.092-.086.095-.083.098-.08.1-.079.1-.076.102-.073.104-.071.105-.07.107-.067.11-.064.11-.063.112-.06.115-.06.116-.055.117-.054.12-.05.122-.048.123-.044.124-.04.129-.038.128-.034.132-.032.131-.027.136-.026.136-.021.139-.017.139-.016.143-.01.144-.01.145-.004.149-.002.14.002.135.006.135.009.132.012.131.017.128.02.126.022.126.027.122.03.12.036.12.037.116.042.116.044.112.05.112.05.108.057.212.123.206.136.197.148.192.16.184.176.18.188.17.199.107.141.197-.96.019-.072.03-.067.042-.063.051-.056.062-.05.07-.045.081-.04.09-.033.102-.029.115-.024.129-.02.14-.017.157-.013.17-.01.18-.005.197-.002c.096.001.189.002.285.005l.086.001.16.01.144.015.127.02.115.022.052.013.048.013.044.014.042.016.038.018.038.017.033.019.03.021.028.022.024.024.022.028.018.028.013.03.009.03.007.032.005.032.002.032-.001.033-.004.033-2.388 11.858-.019.073-.031.067-.042.063-.051.057z"/>
        <path fill="#82BC00" d="M93.239 16.96l-.004.116-.016.233-.022.232-.013.116c-.016.116-.032.236-.05.355l-.038.237-.044.24-.023.123-1.476 7.286-.009.036-.012.034-.013.035-.017.031-.017.033-.022.03-.023.03-.027.027-.031.026-.031.023-.036.024-.038.023-.043.022-.045.02-.05.016-.106.035-.058.014-.062.016-.136.025-.149.02-.166.017-.186.013-.204.011-.227.005h-.242l-.222-.005-.203-.011-.18-.013-.16-.017-.142-.02-.063-.013-.06-.012-.056-.016-.052-.014-.089-.036-.04-.018-.038-.02-.034-.022-.03-.023-.027-.025-.024-.026-.017-.028-.015-.029-.014-.029-.01-.033-.007-.033-.004-.033v-.034l.003-.035.006-.037 1.458-7.154.029-.16.023-.16.022-.164.016-.161c.006-.076.012-.151.016-.226l.006-.205v-.063l-.003-.143-.013-.137-.018-.13-.027-.123-.035-.116-.043-.11-.05-.103-.058-.095-.064-.086-.074-.074-.087-.062-.095-.052-.107-.04-.118-.029-.128-.016-.142-.006-.134.005-.136.015-.136.027-.14.037-.142.048-.142.057-.144.069-.146.08-.145.09-.144.095-.141.106-.14.11-.138.118-.134.127-.134.134-.133.141-.128.149-.124.155-.122.163-.12.168-.113.174-.111.181-.108.185-.104.193-.05.099-.049.099-.046.1-.046.099-.043.101-.042.101-.038.104-.037.104-.036.104-.034.105-.03.106-.032.106-.026.109-.028.108-.024.11-1.1 5.449-.008.036-.012.034-.014.035-.016.031-.018.033-.021.028-.022.03-.026.029-.03.026-.033.023-.035.024-.038.023-.043.022-.046.02-.049.016-.106.035-.06.014-.061.016-.136.025-.151.02-.17.017-.186.013-.204.011-.223.005h-.238l-.224-.005-.203-.011-.18-.013-.16-.017-.142-.02-.125-.025-.056-.016-.054-.014-.094-.035-.041-.019-.039-.02-.034-.022-.03-.023-.025-.025-.023-.027-.018-.028-.015-.03-.01-.03-.009-.032-.004-.032-.004-.033.002-.035.003-.034.005-.036 2.386-11.81.01-.034.009-.033.013-.03.013-.034.017-.03.019-.029.02-.03.022-.027.025-.027.028-.026.031-.024.034-.022.038-.02.04-.018.088-.033.098-.03.113-.027.125-.021.14-.02.15-.014.166-.01.18-.005c.098 0 .197-.002.295 0 .09 0 .18.003.273.004l.159.01.14.015.127.02.111.022.05.014.048.012.044.014.04.016.038.018.034.017.03.02.029.02.025.023.023.025.02.027.014.028.014.03.01.03.004.03.007.033.002.032-.002.033-.002.033-.35 1.766.033-.05.084-.119.092-.119.097-.12.102-.12.108-.12.116-.122.119-.12.125-.115.127-.114.134-.11.136-.108.143-.105.146-.1.15-.1.154-.093.158-.089.16-.086.165-.082.167-.078.17-.072.175-.069.179-.064.18-.057.181-.05.184-.042.187-.035.187-.026.191-.02.191-.012.193-.003.118.002.113.001.113.006.108.008.108.01.104.011.102.015.101.016.1.018.094.02.093.022.092.025.088.027.086.03.084.03.082.032.155.074.149.077.14.083.134.09.128.097.119.104.11.108.103.115.097.12.09.126.082.127.075.136.067.139.062.144.056.15.047.153.041.155.035.158.03.161.026.163.018.166.013.167.01.17.001.171v.115l-.004.118zM78.006 25.981l-.012.034-.013.031-.017.032-.019.03-.02.029-.024.028-.026.026-.028.023-.031.025-.034.02-.035.023-.04.019-.042.018-.045.015-.048.015-.054.014-.054.014-.117.022-.13.02a9.35 9.35 0 0 1-.218.023l-.166.012-.182.007-.2.003-.195-.003-.18-.007-.16-.012-.142-.015-.125-.018-.056-.01-.104-.022-.048-.014-.043-.014-.04-.015-.038-.017-.034-.019-.034-.019-.027-.022-.025-.023-.023-.025-.018-.025-.018-.03-.01-.03-.009-.03-.005-.03-.002-.035.001-.031.004-.035.006-.035.008-.034.317-1.695-.03.044-.082.117-.09.118-.094.117-.102.118-.107.118-.115.117-.12.116-.126.114-.127.111-.132.112-.138.106-.141.104-.146.102-.15.099-.153.094-.16.092-.158.087-.165.082-.167.076-.168.074-.174.067-.177.064-.179.055-.179.048-.182.041-.182.034-.185.026-.184.017-.186.011-.188.004h-.116l-.114-.004-.111-.005-.11-.006-.107-.01-.104-.01-.102-.014-.101-.015-.1-.018-.096-.02-.093-.02-.093-.024-.089-.026-.088-.026-.085-.031-.081-.03-.162-.069-.15-.074-.145-.08-.138-.087-.128-.09-.119-.098-.112-.103-.106-.11-.093-.116-.09-.12-.083-.126-.075-.133-.07-.137-.063-.146-.055-.149-.051-.154-.04-.16-.038-.161-.03-.165-.026-.168-.02-.171-.014-.177-.008-.178-.004-.182.004-.225.011-.23.009-.115.01-.118.025-.234.034-.237c.024-.16.05-.322.077-.481l.045-.244 1.464-7.314.009-.035.01-.033.013-.034.017-.031.019-.03.02-.031.024-.029.029-.027.028-.027.032-.026.036-.023.038-.023.043-.017.045-.02.046-.016.053-.018.115-.029.062-.012.067-.014.143-.021.16-.02.177-.014.196-.01.213-.005c.118 0 .234-.002.353 0 .109 0 .218.003.329.004l.19.01.087.008.082.007.15.02.131.021.06.014.055.013.052.014.049.016.041.016.04.018.038.019.034.019.03.023.027.025.023.027.02.028.016.03.013.03.007.033.008.031.003.033-.002.034-.001.033-1.417 7.121-.03.15-.028.147-.022.153-.02.157c-.008.102-.017.204-.023.309-.003.073-.006.149-.007.223v.073l.004.154.003.072.007.072.008.069.01.068.011.065.015.063.016.065.018.06.02.057.021.053.025.054.025.05.03.048.029.045.033.043.036.039.037.037.04.033.04.031.045.03.046.027.049.022.05.022.053.018.055.015.06.014.061.01.064.007.068.003.07.004.134-.007.136-.016.136-.027.138-.037.14-.049.142-.06.144-.071.145-.08.146-.092.144-.098.144-.107.14-.116.138-.124.138-.132.134-.14.132-.149.132-.156.126-.164.124-.17.12-.177.117-.184.112-.19.11-.199.105-.205.051-.104.05-.106.049-.107.047-.11.045-.108.044-.11.041-.111.078-.226.037-.115.034-.116.067-.235.03-.12.029-.12.027-.12 1.013-5.105.005-.032.01-.034.01-.033.015-.034.02-.031.02-.03.023-.03.027-.028.033-.027.032-.025.04-.023.04-.023.041-.017.046-.02.098-.034.117-.029.06-.012.069-.014.143-.021.16-.02.178-.014.195-.01.212-.005c.12 0 .234-.002.355 0 .107 0 .216.003.327.004l.19.01.09.008.08.007.15.02.133.021.061.014.055.013.053.014.048.016.047.016.041.018.037.019.036.019.03.023.029.026.022.027.019.029.013.03.009.03.007.032.005.032.002.032-.001.033-.002.033-2.39 11.857-.008.034-.01.036zM67.327 14.128c0 .093-.007.207-.025.345-.02.138-.044.29-.076.45a3.88 3.88 0 0 1-.31.923c-.069.128-.147.24-.232.32a.386.386 0 0 1-.276.13h-2.645l-1.14 5.638c-.025.133-.047.293-.072.478-.023.181-.032.33-.032.448 0 .358.083.62.26.785.169.167.438.248.809.248.216 0 .4-.012.554-.045.157-.032.288-.065.402-.105.11-.042.209-.078.291-.112a.63.63 0 0 1 .231-.046c.07 0 .13.033.18.102.052.07.076.179.076.331 0 .17-.02.362-.051.578a5.613 5.613 0 0 1-.145.626c-.06.202-.124.384-.198.55a1.205 1.205 0 0 1-.227.372 1.206 1.206 0 0 1-.37.225 3.252 3.252 0 0 1-.572.193c-.223.05-.458.096-.712.123a5.973 5.973 0 0 1-2.188-.119 2.547 2.547 0 0 1-1.034-.533 2.177 2.177 0 0 1-.632-.927c-.142-.377-.212-.836-.212-1.374 0-.095.006-.21.014-.339.01-.132.029-.27.047-.412.022-.142.047-.29.069-.436.023-.148.047-.28.074-.395l1.18-5.853h-1.462c-.12 0-.203-.038-.26-.116-.054-.075-.082-.222-.082-.436 0-.152.019-.355.052-.597.027-.247.081-.492.152-.73a2.25 2.25 0 0 1 .286-.61c.116-.171.258-.258.42-.258h1.449l.54-2.676a.523.523 0 0 1 .13-.24.787.787 0 0 1 .313-.182c.14-.051.32-.083.542-.107.222-.022.5-.034.833-.034.324 0 .596.012.812.034.219.024.385.056.501.107.116.05.2.11.235.183.041.07.056.15.038.24l-.542 2.675h2.612c.154 0 .26.05.31.152.058.096.083.238.083.426z"/>
        <g>
            <path fill="#007CBA" d="M27.64 13.106s1.442 0 2.219.77c0 0-2.133 1.314-3.038 2.472 0 0 10.665.276 10.536 12.155 0 0-1.551-12.584-17.587-9.63 0 0 4.1-4.74 7.87-5.767z"/>
            <path fill="#82BC00" d="M26.237 19.835s1.163 0 2.069.384c0 0-1.745 1.155-2.52 2.698 0 0 10.511.666 8.985 9.694-.146.075.42-9.006-15.001-7.575 0 0 3.104-3.789 6.467-5.201z"/>
            <path fill="#007CBA" d="M18.009 18.554L0 16.003h20.345z"/>
            <path fill="#82BC00" d="M21.49 14.715L9.459 12.918H23.9zM12.882 27.472c3.787 6.378 13.036 10.152 19.605 5.705 0 0 .402-1.58-.827-2.913 0 .158-9.038 6.8-18.778-2.792z"/>
            <path fill="#82BC00" d="M15.906 34.475c3.106 1.826 7.982 3.811 13.433 2.76 11.007-1.797 13.437-16.436 4.705-22.695-2.799-2.006-7.048-3.499-13.498-3.499 0 0 7.368-8.52 17.328-11.041C50.5 3.417 56.3 18.267 47.186 27.989 53.325 17.592 48.999 6.3 38.414 2.577c0 0-3.016.059-10.278 6.462 8.55 1.42 15.318 8.758 14.439 17.511C41.43 37.955 26.159 45 15.906 34.475z"/>
            <path fill="#82BC00" fill-rule="nonzero" d="M42.66 12.35l-1.298 1.003c.424.474.852.595 1.29.367.272-.256.276-.714.008-1.37zm1.82-2.557c-.408-.474-.819-.573-1.232-.295-.235.224-.241.645-.018 1.262l1.25-.967zm-2.233 1.726a6.206 6.206 0 0 1-.514-1.665c-.107-.532.06-1.005.506-1.413l.027-.021c.73-.565 1.593-.508 2.592.166.226.17.412.332.56.484l.384-.297.563.716-.404.312c.466.814.592 1.72.387 2.715l-.017.014-1.423-.516c.15-.52.159-.993.027-1.42l-1.324 1.022c.01.012.016.027.024.041.27.56.455 1.083.544 1.576.117.598-.053 1.113-.504 1.543l-.033.026c-.735.566-1.603.512-2.605-.167a4.91 4.91 0 0 1-.616-.554l-.41.317-.563-.717.42-.324c-.542-.893-.689-1.85-.438-2.87l1.414.638c-.184.497-.175.983.024 1.459l1.379-1.065z"/>
        </g>
        <g>
            <path fill="#047DBB" fill-rule="nonzero" d="M75.326 33.96l-.243 1.27a.239.239 0 0 1-.231.197h-.287c-.149 0-.26-.142-.231-.294l.682-3.555a.239.239 0 0 1 .231-.198h1.269c.39 0 .688.121.897.363.21.242.278.552.205.93-.08.41-.26.728-.54.952-.279.223-.63.334-1.056.334h-.696zm.12-.626h.696c.18 0 .334-.063.462-.189a.884.884 0 0 0 .248-.467c.039-.206.022-.37-.052-.49-.074-.122-.209-.182-.404-.182h-.694l-.256 1.328z"/>
            <path fill="#047DBB" d="M78.768 35.427h-.493c-.085 0-.149-.081-.132-.168l.722-3.766a.137.137 0 0 1 .133-.113h.493c.085 0 .149.081.132.168l-.722 3.766a.137.137 0 0 1-.133.113zM82.882 35.427h-.576a.126.126 0 0 1-.118-.088l-.85-2.602h-.015l-.495 2.585a.127.127 0 0 1-.123.105h-.513c-.08 0-.138-.075-.123-.156l.727-3.786a.127.127 0 0 1 .122-.105h.576c.054 0 .102.036.119.089l.846 2.599h.016l.498-2.583a.127.127 0 0 1 .122-.105h.514c.079 0 .138.075.122.156l-.726 3.786a.127.127 0 0 1-.123.105zM84.03 34.726c.067.09.175.134.322.134.118 0 .233-.059.346-.176a.924.924 0 0 0 .228-.474l.544-2.83h.766l-.544 2.832c-.08.417-.254.734-.52.95-.268.215-.582.357-.94.323a.913.913 0 0 1-.429-.172l.228-.587z"/>
            <path fill="#047DBB" fill-rule="nonzero" d="M88.613 34.554h-1.217l-.372.79a.142.142 0 0 1-.128.083h-.448c-.107 0-.175-.118-.126-.217l1.864-3.75a.142.142 0 0 1 .126-.08h.571c.073 0 .133.057.142.131l.418 3.75a.146.146 0 0 1-.142.166h-.483a.145.145 0 0 1-.142-.135l-.063-.738zm-.918-.636h.862l-.131-1.518-.016-.003-.715 1.52z"/>
            <path fill="#047DBB" d="M91.881 31.38c.085 0 .156.067.165.154l.29 2.826.017.003 1.41-2.889a.165.165 0 0 1 .148-.094h.7c.104 0 .183.1.162.207l-.71 3.701a.168.168 0 0 1-.162.139h-.43c-.105 0-.184-.1-.163-.206l.192-1 .398-1.701-.014-.006-1.44 2.821a.165.165 0 0 1-.145.092h-.27a.168.168 0 0 1-.165-.15l-.344-2.749h-.016l-.253 1.693-.205 1.067a.168.168 0 0 1-.163.139h-.43c-.105 0-.183-.1-.163-.206l.71-3.702a.168.168 0 0 1 .163-.139h.718z"/>
            <path fill="#82BC00" d="M98.606 35.414a1.548 1.548 0 0 1-1.245-1.247c-.097-.523 0-1.064.23-1.54.62-1.282 1.717-1.364 1.717-1.364.557-.035.91.202 1.069.344.066.059.098.15.083.24a.749.749 0 0 1-.208.43.156.156 0 0 1-.224-.011.71.71 0 0 0-.241-.167c-.338-.147-.725-.041-.992.219-.287.28-.63.765-.618 1.478.005.283.115.56.323.741.237.207.63.337 1.21-.08a.064.064 0 0 1 .1.033c.05.176.096.585-.448.838 0 0-.314.17-.756.086zM103.105 33.648h-1.4l-.22 1.154h1.616c.057 0 .1.053.088.111l-.084.44a.09.09 0 0 1-.088.074h-2.312c-.057 0-.099-.054-.088-.111l.74-3.861a.09.09 0 0 1 .088-.075h2.307c.057 0 .1.054.088.111l-.084.44a.09.09 0 0 1-.088.075h-1.647l-.195 1.017h1.364c.056 0 .098.054.087.111l-.084.44a.09.09 0 0 1-.088.074z"/>
            <path fill="#82BC00" fill-rule="nonzero" d="M105.027 33.96l-.264 1.385a.1.1 0 0 1-.097.082h-.568c-.062 0-.108-.059-.096-.122l.737-3.843a.1.1 0 0 1 .096-.082h1.382c.39 0 .689.121.898.363.209.242.277.552.204.93-.08.41-.26.728-.54.952-.278.223-.63.334-1.056.334h-.696zm.12-.626h.696c.18 0 .334-.063.462-.189a.884.884 0 0 0 .248-.467c.04-.206.022-.37-.052-.49-.074-.122-.209-.182-.404-.182h-.694l-.256 1.328zM109.405 34.554h-1.217l-.382.813a.103.103 0 0 1-.093.06h-.536c-.078 0-.128-.086-.092-.158l1.904-3.83a.103.103 0 0 1 .092-.059h.629c.053 0 .097.041.103.096l.427 3.83a.106.106 0 0 1-.103.121h-.563a.105.105 0 0 1-.103-.098l-.066-.775zm-.918-.636h.862l-.131-1.518-.016-.003-.715 1.52z"/>
            <path fill="#82BC00" d="M113.89 32.006h-.926l-.641 3.341a.097.097 0 0 1-.094.08h-.574c-.06 0-.105-.057-.093-.119l.633-3.302h-.886c-.056 0-.099-.054-.088-.112l.085-.439a.09.09 0 0 1 .087-.075h2.582c.056 0 .099.054.088.112l-.085.439a.09.09 0 0 1-.087.075z"/>
            <path fill="#047DBB" d="M117.464 31.38c.118 0 .217.093.23.216l.285 2.764.016.003 1.392-2.85a.231.231 0 0 1 .207-.133h.578c.146 0 .256.14.227.289l-.684 3.564a.234.234 0 0 1-.227.194h-.295c-.147 0-.256-.14-.228-.289l.177-.917.397-1.701-.013-.006-1.42 2.785a.23.23 0 0 1-.205.128h-.172a.235.235 0 0 1-.23-.21l-.337-2.689h-.016l-.253 1.693-.195 1.012a.234.234 0 0 1-.227.194h-.296c-.146 0-.256-.14-.227-.289l.683-3.564a.234.234 0 0 1 .228-.194h.605zM124.275 31.38c.097 0 .169.092.15.19l-.478 2.495c-.095.486-.296.844-.605 1.074-.308.231-.688.346-1.138.346-.409 0-.73-.125-.964-.375-.234-.25-.308-.598-.223-1.045l.49-2.557a.155.155 0 0 1 .15-.128h.46c.096 0 .169.092.15.19l-.479 2.493c-.055.285-.034.49.062.612.096.123.254.185.474.185a.8.8 0 0 0 .542-.201c.155-.135.258-.333.31-.596l.49-2.555a.155.155 0 0 1 .15-.128h.46z"/>
            <path fill="#047DBB" fill-rule="nonzero" d="M124.803 35.19l.7-3.65a.192.192 0 0 1 .186-.16h1.005c.42 0 .763.166 1.03.498.267.331.355.738.264 1.22l-.13.67c-.104.533-.308.943-.614 1.23a1.59 1.59 0 0 1-1.129.429h-1.126c-.12 0-.21-.114-.186-.237zm1.379-3.184l-.536 2.796h.55c.229 0 .42-.093.57-.278.152-.185.258-.438.32-.758l.131-.675c.062-.327.03-.59-.099-.788-.128-.198-.322-.297-.584-.297h-.352zM130.603 34.554h-1.217l-.376.8a.125.125 0 0 1-.113.073h-.486c-.095 0-.155-.104-.112-.191l1.882-3.785a.125.125 0 0 1 .111-.07h.596c.064 0 .118.049.125.115l.422 3.785a.13.13 0 0 1-.125.146h-.518a.128.128 0 0 1-.125-.12l-.064-.753zm-.918-.636h.861l-.13-1.518-.016-.003-.715 1.52z"/>
            <path fill="#047DBB" d="M135.079 35.427h-.5c-.082 0-.144-.078-.128-.162l.292-1.52h-1.412l-.301 1.573a.132.132 0 0 1-.128.109h-.503c-.082 0-.144-.078-.128-.162l.725-3.776a.132.132 0 0 1 .128-.109h.502c.082 0 .144.079.128.163l-.302 1.577h1.41l.314-1.63a.132.132 0 0 1 .127-.11h.5c.082 0 .144.079.128.163l-.724 3.775a.132.132 0 0 1-.128.109z"/>
        </g>
    </g>
</svg>
